<?xml version="1.0" encoding="utf-8"?>
<!-- Generator: Adobe Illustrator 25.4.1, SVG Export Plug-In . SVG Version: 6.00 Build 0)  -->
<svg version="1.1" id="Layer_1" xmlns="http://www.w3.org/2000/svg" xmlns:xlink="http://www.w3.org/1999/xlink" x="0px" y="0px"
	 viewBox="0 0 100 100" style="enable-background:new 0 0 100 100;" xml:space="preserve">
<style type="text/css">
	.st0{fill:#099BFC;}
	.st1{fill:#FFFFFF;}
	.st2{fill:none;stroke:#363636;stroke-width:1.1565;stroke-miterlimit:10;}
	.st3{fill-rule:evenodd;clip-rule:evenodd;}
	.st4{fill-rule:evenodd;clip-rule:evenodd;fill:#FFFFFF;}
	.st5{fill:none;stroke:url(#SVGID_1_);stroke-width:0.823;stroke-miterlimit:10;}
	.st6{fill:url(#SVGID_00000080178403758124226450000016401825490375599287_);}
	.st7{fill:url(#SVGID_00000073697914973355852870000002043535862634453682_);}
	.st8{fill:url(#SVGID_00000072282427569215508620000015696784287540238523_);}
	.st9{fill:#139AD6;}
	.st10{fill:#263B80;}
	.st11{fill:#232C65;}
	.st12{fill-rule:evenodd;clip-rule:evenodd;fill:#DFAC16;}
	.st13{fill-rule:evenodd;clip-rule:evenodd;fill:#BF3126;}
	.st14{fill-rule:evenodd;clip-rule:evenodd;fill:#635BFF;}
	.st15{fill:#1A2ADF;}
	.st16{display:none;opacity:0.3;}
	.st17{fill:#D40511;}
	.st18{fill:#EE7203;}
	.st19{fill:#482683;}
	.st20{fill:#341B14;}
	.st21{fill:#FFB406;}
</style>
<g>
	<path class="st0" d="M76,66.2c-3.3-3.2-7.3-3.2-10.6,0c-2.5,2.5-5,4.9-7.4,7.4c-0.7,0.7-1.2,0.8-2,0.4c-1.6-0.9-3.3-1.6-4.8-2.5
		C44,66.9,38,61.1,32.6,54.5c-2.6-3.2-5-6.7-6.6-10.6c-0.3-0.8-0.3-1.3,0.4-2c2.5-2.4,4.9-4.8,7.3-7.3c3.4-3.4,3.4-7.4,0-10.8
		c-1.9-2-3.9-3.9-5.8-5.8c-2-2-4-4-6-6c-3.3-3.2-7.3-3.2-10.6,0c-2.5,2.5-4.9,5-7.4,7.4c-2.4,2.2-3.5,5-3.8,8.1
		c-0.4,5.2,0.9,10.1,2.7,14.8C6.4,52.2,12,61,18.7,69c9.1,10.9,20,19.5,32.8,25.7c5.7,2.8,11.7,4.9,18.2,5.3
		c4.5,0.2,8.3-0.9,11.4-4.3c2.1-2.4,4.5-4.5,6.8-6.8c3.3-3.4,3.4-7.4,0-10.8C84,74.1,80,70.1,76,66.2z"/>
	<path class="st0" d="M72.1,49.6l7.7-1.3c-1.2-7.1-4.5-13.4-9.6-18.5C64.8,24.4,58,21,50.6,20l-1.1,7.7c5.8,0.8,11,3.4,15.1,7.6
		C68.6,39.2,71.1,44.1,72.1,49.6z"/>
	<path class="st0" d="M84.1,16.2C75.2,7.3,64,1.7,51.6,0l-1.1,7.7c10.7,1.5,20.4,6.3,28.1,14c7.3,7.3,12,16.4,13.8,26.5l7.7-1.3
		C98,35.2,92.5,24.6,84.1,16.2z"/>
</g>
</svg>
