<?xml version="1.0" encoding="utf-8"?>
<!-- Generator: Adobe Illustrator 25.4.1, SVG Export Plug-In . SVG Version: 6.00 Build 0)  -->
<svg version="1.1" id="Layer_1" xmlns="http://www.w3.org/2000/svg" xmlns:xlink="http://www.w3.org/1999/xlink" x="0px" y="0px"
	 viewBox="0 0 100 100" style="enable-background:new 0 0 100 100;" xml:space="preserve">
<style type="text/css">
	.st0{fill:#099BFC;}
	.st1{fill:#FFFFFF;}
	.st2{fill:none;stroke:#363636;stroke-width:1.1565;stroke-miterlimit:10;}
	.st3{fill-rule:evenodd;clip-rule:evenodd;}
	.st4{fill-rule:evenodd;clip-rule:evenodd;fill:#FFFFFF;}
	.st5{fill:none;stroke:url(#SVGID_1_);stroke-width:0.823;stroke-miterlimit:10;}
	.st6{fill:url(#SVGID_00000003790922283837792600000013687469752127954095_);}
	.st7{fill:url(#SVGID_00000163776299627293165920000001488978561037803182_);}
	.st8{fill:url(#SVGID_00000027606124370515979830000016313866499283385278_);}
	.st9{fill:#139AD6;}
	.st10{fill:#263B80;}
	.st11{fill:#232C65;}
	.st12{fill-rule:evenodd;clip-rule:evenodd;fill:#DFAC16;}
	.st13{fill-rule:evenodd;clip-rule:evenodd;fill:#BF3126;}
	.st14{fill-rule:evenodd;clip-rule:evenodd;fill:#635BFF;}
	.st15{fill:#1A2ADF;}
	.st16{display:none;opacity:0.3;}
	.st17{fill:#D40511;}
	.st18{fill:#EE7203;}
	.st19{fill:#482683;}
	.st20{fill:#341B14;}
	.st21{fill:#FFB406;}
</style>
<g id="Icon">
	<path id="_01" class="st0" d="M50,0C22.4,0,0,22.4,0,50s22.4,50,50,50c27.6,0,50-22.4,50-50S77.6,0,50,0z M47,42.2
		c0.3,0.7,0.8,1.3,1.6,1.8c0.7,0.6,1.8,1.1,3,1.7c3.2,1.4,5.8,2.7,7.9,4c2.1,1.3,3.6,2.8,4.6,4.5c1,1.7,1.5,3.8,1.5,6.3
		c0,3.6-1.1,6.4-3.4,8.6c-2.3,2.2-5.3,3.5-9.1,3.8v6.2h-5v-6.2c-2.7-0.3-5.1-1-7.2-2.1c-2.1-1.1-3.8-2.8-5-4.9
		c-1.2-2.1-1.8-4.7-1.7-7.8l0.1-0.2h10.6c0,1.7,0.2,3,0.7,4c0.5,1,1.2,1.8,2,2.3c0.9,0.5,1.9,0.7,3,0.7c0.9,0,1.7-0.2,2.3-0.6
		c0.6-0.4,1.1-0.9,1.4-1.6c0.3-0.7,0.5-1.5,0.5-2.3c0-1-0.2-1.9-0.5-2.6c-0.3-0.7-0.8-1.4-1.6-1.9c-0.7-0.6-1.7-1.1-3-1.7
		c-3.2-1.3-5.8-2.5-7.9-3.8c-2.1-1.3-3.6-2.8-4.6-4.5c-1-1.7-1.5-3.8-1.5-6.4c0-3.5,1.2-6.4,3.5-8.6c2.4-2.2,5.5-3.6,9.5-3.9v-6.5
		h4.9v6.7c3.7,0.6,6.6,2.1,8.8,4.6c2.2,2.5,3.2,5.7,3.2,9.5l0.1,0.2H55.1c0-2.2-0.4-3.8-1.2-4.9c-0.8-1.1-1.9-1.6-3.2-1.6
		s-2.4,0.4-3,1.3c-0.7,0.9-1,2-1,3.4C46.5,40.8,46.7,41.5,47,42.2L47,42.2z"/>
</g>
</svg>
