<?xml version="1.0" encoding="utf-8"?>
<!-- Generator: Adobe Illustrator 25.4.1, SVG Export Plug-In . SVG Version: 6.00 Build 0)  -->
<svg version="1.1" id="Layer_1" xmlns="http://www.w3.org/2000/svg" xmlns:xlink="http://www.w3.org/1999/xlink" x="0px" y="0px"
	 viewBox="0 0 100 100" style="enable-background:new 0 0 100 100;" xml:space="preserve">
<style type="text/css">
	.st0{fill:#099BFC;}
	.st1{fill:#FFFFFF;}
	.st2{fill:none;stroke:#363636;stroke-width:1.1565;stroke-miterlimit:10;}
	.st3{fill-rule:evenodd;clip-rule:evenodd;}
	.st4{fill-rule:evenodd;clip-rule:evenodd;fill:#FFFFFF;}
	.st5{fill:none;stroke:url(#SVGID_1_);stroke-width:0.823;stroke-miterlimit:10;}
	.st6{fill:url(#SVGID_00000150102983595102031400000018078756870048664453_);}
	.st7{fill:url(#SVGID_00000175285773676114213640000017717558581716461466_);}
	.st8{fill:url(#SVGID_00000138536280460256283770000004552229000500683166_);}
	.st9{fill:#139AD6;}
	.st10{fill:#263B80;}
	.st11{fill:#232C65;}
	.st12{fill-rule:evenodd;clip-rule:evenodd;fill:#DFAC16;}
	.st13{fill-rule:evenodd;clip-rule:evenodd;fill:#BF3126;}
	.st14{fill-rule:evenodd;clip-rule:evenodd;fill:#635BFF;}
	.st15{fill:#1A2ADF;}
	.st16{display:none;opacity:0.3;}
	.st17{fill:#D40511;}
	.st18{fill:#EE7203;}
	.st19{fill:#482683;}
	.st20{fill:#341B14;}
	.st21{fill:#FFB406;}
</style>
<g id="Layer_24_00000081645299852222793920000017061014424457383314_">
	<path class="st0" d="M100,36.7c0,0.9-0.3,1.7-1,2.4L79,59c-0.6,0.6-1.5,1-2.4,1c-0.4,0-0.9-0.1-1.3-0.2c-1.3-0.5-2.1-1.7-2.1-3.1
		v-10h-30c-1.8,0-3.3-1.5-3.3-3.3V30c0-1.8,1.5-3.3,3.3-3.3h30v-10c0-1.8,1.5-3.3,3.3-3.3c0.9,0,1.7,0.4,2.4,1l20,20
		C99.6,34.9,100,35.8,100,36.7z M56.7,53.3h-30v-10c0-1.3-0.8-2.6-2.1-3.1C23.4,39.7,21.9,40,21,41L1,61c-0.6,0.6-1,1.5-1,2.4
		c0,0.9,0.3,1.7,1,2.4l20,20c0.6,0.6,1.5,1,2.4,1c0.4,0,0.9-0.1,1.3-0.3c1.2-0.5,2.1-1.7,2.1-3.1v-10h30c1.8,0,3.3-1.5,3.3-3.3V56.7
		C60,54.8,58.5,53.3,56.7,53.3z"/>
</g>
</svg>
