<?xml version="1.0" encoding="utf-8"?>
<!-- Generator: Adobe Illustrator 25.4.1, SVG Export Plug-In . SVG Version: 6.00 Build 0)  -->
<svg version="1.1" id="Layer_1" xmlns="http://www.w3.org/2000/svg" xmlns:xlink="http://www.w3.org/1999/xlink" x="0px" y="0px"
	 viewBox="0 0 100 100" style="enable-background:new 0 0 100 100;" xml:space="preserve">
<style type="text/css">
	.st0{fill:#099BFC;}
	.st1{fill:#FFFFFF;}
	.st2{fill:none;stroke:#363636;stroke-width:1.1565;stroke-miterlimit:10;}
	.st3{fill-rule:evenodd;clip-rule:evenodd;}
	.st4{fill-rule:evenodd;clip-rule:evenodd;fill:#FFFFFF;}
	.st5{fill:none;stroke:url(#SVGID_1_);stroke-width:0.823;stroke-miterlimit:10;}
	.st6{fill:url(#SVGID_00000173841482744559238810000000160617244057600690_);}
	.st7{fill:url(#SVGID_00000078748979979100006110000007544083067326654596_);}
	.st8{fill:url(#SVGID_00000029727384777610976880000000403153535763462822_);}
	.st9{fill:#139AD6;}
	.st10{fill:#263B80;}
	.st11{fill:#232C65;}
	.st12{fill-rule:evenodd;clip-rule:evenodd;fill:#DFAC16;}
	.st13{fill-rule:evenodd;clip-rule:evenodd;fill:#BF3126;}
	.st14{fill-rule:evenodd;clip-rule:evenodd;fill:#635BFF;}
	.st15{fill:#1A2ADF;}
	.st16{display:none;opacity:0.3;}
	.st17{fill:#D40511;}
	.st18{fill:#EE7203;}
	.st19{fill:#482683;}
	.st20{fill:#341B14;}
	.st21{fill:#FFB406;}
</style>
<g>
	<path class="st0" d="M88,81.8c-2.2-6.7-11.2-10.8-17.5-13.6c-2.5-1.1-9.4-2.9-10.2-6.1c-0.3-1.1-0.3-2.2,0-3.2
		c-0.4,0.1-0.8,0.1-1.2,0.1H55c-3.3,0-6-2.7-6-6c0-3.3,2.7-6,6-6h4.1c1.4,0,2.7,0.5,3.7,1.3c1.5-0.2,3-0.5,4.4-1
		c1.8-3.8,3.2-8.3,3.5-12.2c1.4-16.7-8.9-26.5-23.6-24.8c-10.7,1.2-17.1,9.2-17.8,19.5c-0.7,10.5,3.2,18.2,7.3,23.8
		c1.8,2.5,3.7,4.1,3.4,7.1c-0.3,3.5-4.1,4.5-6.8,5.6c-3.2,1.3-6.6,3.2-8.3,4.1c-5.6,3.1-11.8,6.8-13.1,11.9
		C8.8,93.5,19.2,97,27.7,98.5c7.3,1.4,15.6,1.5,22.4,1.5c12.3,0,34.4-0.5,37.9-9.7C89.1,87.7,88.6,83.5,88,81.8L88,81.8z"/>
	<path class="st0" d="M61.7,51.3c-0.6-0.9-1.5-1.4-2.6-1.4H55c-1.7,0-3.1,1.4-3.1,3.1c0,1.7,1.4,3.1,3.1,3.1h4.1
		c1.2,0,2.2-0.7,2.8-1.7c5.8-0.5,10.8-2.2,14.3-4.8c0.8,0.5,1.8,0.8,2.8,0.8h0.3c2.9,0,5.2-2.3,5.2-5.2V34.8c0-2.1-1.2-3.9-3-4.7
		C80.7,13.4,66.9,0,50,0S19.3,13.4,18.5,30.1c-1.8,0.8-3,2.6-3,4.7v10.4c0,2.9,2.3,5.2,5.2,5.2H21c2.9,0,5.2-2.3,5.2-5.2V34.8
		c0-2-1.2-3.8-2.9-4.7C24,16,35.7,4.8,50,4.8c14.3,0,26,11.2,26.7,25.3c-1.7,0.9-2.9,2.6-2.9,4.7v10.4c0,0.7,0.1,1.3,0.4,1.9
		C71.1,49.3,66.7,50.8,61.7,51.3L61.7,51.3z"/>
</g>
</svg>
