<?xml version="1.0" encoding="utf-8"?>
<!-- Generator: Adobe Illustrator 25.4.1, SVG Export Plug-In . SVG Version: 6.00 Build 0)  -->
<svg version="1.1" id="Layer_1" xmlns="http://www.w3.org/2000/svg" xmlns:xlink="http://www.w3.org/1999/xlink" x="0px" y="0px"
	 viewBox="0 0 100 100" style="enable-background:new 0 0 100 100;" xml:space="preserve">
<style type="text/css">
	.st0{fill:#363636;}
</style>
<g>
	<g>
		<path class="st0" d="M90.1,95H9.9C4.1,95-0.6,90.3-0.6,84.5v-69C-0.6,9.7,4.1,5,9.9,5h80.2c5.8,0,10.5,4.7,10.5,10.5v69
			C100.6,90.3,95.9,95,90.1,95z M9.9,6.2c-5.1,0-9.3,4.2-9.3,9.3v69c0,5.1,4.2,9.3,9.3,9.3h80.2c5.1,0,9.3-4.2,9.3-9.3v-69
			c0-5.1-4.2-9.3-9.3-9.3H9.9z"/>
	</g>
	<g>
		<path d="M82.9,27.5c0-2.7-2.2-4.9-4.9-4.9H18.9c-2.7,0-4.9,2.2-4.9,4.9v4.3h68.9V27.5z"/>
	</g>
	<g>
		<path d="M55.1,49.6c0-3.5,2.8-6.3,6.3-6.3c1.9,0,3.8-0.6,5.4-1.7L69,40c2.2-1.6,5.1-1.6,7.3,0l2.2,1.5c1.3,0.9,2.8,1.5,4.4,1.7V36
			H14v29.5c0,2.7,2.2,4.9,4.9,4.9h39C56,66.9,55,63,55,59.1L55.1,49.6L55.1,49.6z M23.6,45.9H25c1.2,0,2.1,0.9,2.1,2.1
			c0,1.2-0.9,2.1-2.1,2.1h-1.4c-1.2,0-2.1-0.9-2.1-2.1C21.5,46.8,22.5,45.9,23.6,45.9z M41.7,59.1H23.6c-1.2,0-2.1-0.9-2.1-2.1
			c0-1.2,0.9-2.1,2.1-2.1h18.1c1.2,0,2.1,0.9,2.1,2.1C43.8,58.2,42.8,59.1,41.7,59.1z M41.7,50.1h-8.4c-1.2,0-2.1-0.9-2.1-2.1
			c0-1.2,0.9-2.1,2.1-2.1h8.4c1.2,0,2.1,0.9,2.1,2.1C43.8,49.2,42.8,50.1,41.7,50.1z"/>
	</g>
	<g>
		<path d="M83.9,47.5c-2.8,0-5.6-0.9-7.9-2.5l-2.2-1.5c-0.7-0.5-1.7-0.5-2.4,0L69.2,45c-2.3,1.6-5,2.5-7.9,2.5
			c-1.2,0-2.1,0.9-2.1,2.1v9.5c0,8.1,5,15.3,12.6,18.2c0.5,0.2,1,0.2,1.5,0C81,74.5,86,67.2,86,59.1v-9.5
			C86,48.5,85.1,47.5,83.9,47.5L83.9,47.5L83.9,47.5z M78.4,58.7l-5.1,5.8c-0.8,0.9-2.1,1-3,0.2c-0.1-0.1-0.1-0.1-0.2-0.2l-3.3-3.8
			c-0.8-0.9-0.7-2.2,0.2-3s2.2-0.7,3,0.2l0,0l1.7,2l3.5-4c0.8-0.9,2.1-1,3-0.2S79.2,57.9,78.4,58.7L78.4,58.7L78.4,58.7z"/>
	</g>
</g>
</svg>
