<?xml version="1.0" encoding="utf-8"?>
<!-- Generator: Adobe Illustrator 25.4.1, SVG Export Plug-In . SVG Version: 6.00 Build 0)  -->
<svg version="1.1" id="Layer_1" xmlns="http://www.w3.org/2000/svg" xmlns:xlink="http://www.w3.org/1999/xlink" x="0px" y="0px"
	 viewBox="0 0 100 100" style="enable-background:new 0 0 100 100;" xml:space="preserve">
<style type="text/css">
	.st0{fill:#363636;}
</style>
<g>
	<g>
		<path class="st0" d="M90.1,95H9.9C4.1,95-0.6,90.3-0.6,84.5v-69C-0.6,9.7,4.1,5,9.9,5h80.2c5.8,0,10.5,4.7,10.5,10.5v69
			C100.6,90.3,95.9,95,90.1,95z M9.9,6.2c-5.1,0-9.3,4.2-9.3,9.3v69c0,5.1,4.2,9.3,9.3,9.3h80.2c5.1,0,9.3-4.2,9.3-9.3v-69
			c0-5.1-4.2-9.3-9.3-9.3H9.9z"/>
	</g>
	<g>
		<path d="M77.8,24.9c-10.5,0-21-4.9-25.5-12c-0.8-1.2-2.4-1.6-3.7-0.8c-0.3,0.2-0.6,0.5-0.8,0.8c-4.5,7.1-15,12-25.5,12
			c-1.5,0-2.6,1.2-2.6,2.6V54c0,18.3,17.8,31.3,29.8,34.3c0.4,0.1,0.9,0.1,1.3,0c12-3,29.8-16,29.8-34.3V27.5
			C80.4,26.1,79.2,24.9,77.8,24.9z M50,68.5c-10.2,0-18.5-8.3-18.5-18.5S39.8,31.5,50,31.5S68.5,39.8,68.5,50S60.2,68.5,50,68.5z
			 M59.8,40.2c1,1,1,2.7,0,3.7L43.9,59.8c-0.5,0.5-1.2,0.8-1.9,0.8c-0.1,0-0.3,0-0.4,0c-0.8-0.1-1.6-0.7-1.9-1.4l-2.6-5.3
			c-0.7-1.3-0.1-2.9,1.2-3.6c1.3-0.7,2.9-0.1,3.6,1.2l0,0l1,2l13.3-13.3C57.1,39.2,58.8,39.2,59.8,40.2L59.8,40.2z"/>
	</g>
</g>
</svg>
