<?xml version="1.0" encoding="utf-8"?>
<!-- Generator: Adobe Illustrator 25.4.1, SVG Export Plug-In . SVG Version: 6.00 Build 0)  -->
<svg version="1.1" id="Layer_1" xmlns="http://www.w3.org/2000/svg" xmlns:xlink="http://www.w3.org/1999/xlink" x="0px" y="0px"
	 viewBox="0 0 100 100" style="enable-background:new 0 0 100 100;" xml:space="preserve">
<style type="text/css">
	.st0{fill:#099BFC;}
	.st1{fill-rule:evenodd;clip-rule:evenodd;fill:#FFFFFF;}
	.st2{fill:#FFFFFF;}
</style>
<circle class="st0" cx="50" cy="50" r="50"/>
<g>
	<path class="st2" d="M61.1,46.4c-3.1-1.7-6.4-3-9.7-4.4c-1.9-0.8-3.7-1.7-5.3-3c-3.2-2.5-2.6-6.6,1.2-8.3c1.1-0.5,2.2-0.6,3.3-0.7
		c4.3-0.2,8.4,0.6,12.3,2.4c1.9,0.9,2.6,0.6,3.2-1.4c0.7-2.1,1.3-4.3,1.9-6.5c0.4-1.4-0.1-2.4-1.5-3c-2.5-1.1-5.1-1.9-7.8-2.3
		c-3.5-0.5-3.5-0.6-3.5-4.1c0-5,0-5-5-5c-0.7,0-1.4,0-2.2,0c-2.3,0.1-2.7,0.5-2.8,2.8c0,1.1,0,2.1,0,3.2c0,3.1,0,3.1-3,4.2
		c-7.2,2.6-11.7,7.6-12.2,15.5c-0.4,7,3.2,11.7,9,15.1c3.5,2.1,7.4,3.4,11.2,5c1.5,0.6,2.9,1.4,4.1,2.4c3.6,3,2.9,7.9-1.3,9.8
		c-2.3,1-4.7,1.2-7.2,0.9c-3.8-0.5-7.5-1.5-10.9-3.3c-2-1.1-2.6-0.8-3.3,1.4c-0.6,1.9-1.1,3.8-1.6,5.7c-0.7,2.6-0.4,3.2,2,4.4
		c3.1,1.5,6.5,2.3,9.9,2.8c2.7,0.4,2.7,0.5,2.8,3.3c0,1.2,0,2.5,0,3.8c0,1.6,0.8,2.5,2.4,2.5c1.8,0,3.7,0,5.5,0
		c1.5,0,2.3-0.9,2.3-2.4c0-1.7,0.1-3.4,0-5.1c-0.1-1.7,0.7-2.6,2.4-3.1c3.9-1.1,7.2-3.1,9.7-6.2C73.7,64.4,71,51.9,61.1,46.4z"/>
</g>
</svg>
