<?xml version="1.0" encoding="utf-8"?>
<!-- Generator: Adobe Illustrator 25.4.1, SVG Export Plug-In . SVG Version: 6.00 Build 0)  -->
<svg version="1.1" id="Layer_1" xmlns="http://www.w3.org/2000/svg" xmlns:xlink="http://www.w3.org/1999/xlink" x="0px" y="0px"
	 viewBox="0 0 100 100" style="enable-background:new 0 0 100 100;" xml:space="preserve">
<style type="text/css">
	.st0{fill:#363636;}
	.st1{fill-rule:evenodd;clip-rule:evenodd;}
</style>
<g>
	<g>
		<path class="st0" d="M90.1,95H9.9C4.1,95-0.6,90.3-0.6,84.5v-69C-0.6,9.7,4.1,5,9.9,5h80.2c5.8,0,10.5,4.7,10.5,10.5v69
			C100.6,90.3,95.9,95,90.1,95z M9.9,6.2c-5.1,0-9.3,4.2-9.3,9.3v69c0,5.1,4.2,9.3,9.3,9.3h80.2c5.1,0,9.3-4.2,9.3-9.3v-69
			c0-5.1-4.2-9.3-9.3-9.3H9.9z"/>
	</g>
	<g>
		<path class="st1" d="M51.4,57.3v28.6l28.2-11V57.1l-22,8.6c-0.6,0.2-1.4,0-1.7-0.6L51.4,57.3z"/>
	</g>
	<g>
		<path class="st1" d="M48.6,85.9V57.3L44.2,65c-0.4,0.6-1.1,0.9-1.7,0.6l-22-8.6v17.9L48.6,85.9z"/>
	</g>
	<g>
		<polygon class="st1" points="80.4,41.8 52,52.9 57.6,62.6 86,51.6 		"/>
	</g>
	<g>
		<polygon class="st1" points="48,52.9 19.6,41.8 14,51.6 42.4,62.6 		"/>
	</g>
	<g>
		<path class="st1" d="M50,47.3c-7.6,0-14-4.7-16.7-11.3l-10.5,4.1L50,50.7l27.2-10.6L66.7,36C64,42.7,57.6,47.3,50,47.3L50,47.3z"
			/>
	</g>
	<g>
		<path d="M50,14.1L50,14.1c-8.4,0-15.2,6.8-15.2,15.2S41.6,44.5,50,44.5s15.2-6.8,15.2-15.2S58.4,14.1,50,14.1z M58.9,25.5
			L48.1,36.3c-1,1-2.6,0.8-3.4-0.3l-4.5-5.7c-0.8-1-0.6-2.3,0.4-3.1c1-0.8,2.3-0.6,3.1,0.4l3.1,3.9l9-9c0.9-0.9,2.3-0.9,3.1,0
			C59.8,23.3,59.8,24.7,58.9,25.5z"/>
	</g>
</g>
</svg>
