<?xml version="1.0" encoding="utf-8"?>
<!-- Generator: Adobe Illustrator 25.4.1, SVG Export Plug-In . SVG Version: 6.00 Build 0)  -->
<svg version="1.1" id="Layer_1" xmlns="http://www.w3.org/2000/svg" xmlns:xlink="http://www.w3.org/1999/xlink" x="0px" y="0px"
	 viewBox="0 0 100 100" style="enable-background:new 0 0 100 100;" xml:space="preserve">
<style type="text/css">
	.st0{fill:#099BFC;}
	.st1{fill:#FFFFFF;}
	.st2{fill:none;stroke:#363636;stroke-width:1.1565;stroke-miterlimit:10;}
	.st3{fill-rule:evenodd;clip-rule:evenodd;}
	.st4{fill-rule:evenodd;clip-rule:evenodd;fill:#FFFFFF;}
	.st5{fill:none;stroke:url(#SVGID_1_);stroke-width:0.823;stroke-miterlimit:10;}
	.st6{fill:url(#SVGID_00000163769008405749537990000012180870145599420335_);}
	.st7{fill:url(#SVGID_00000007424388630322208900000015824342288173581240_);}
	.st8{fill:url(#SVGID_00000164473937441003501830000013727540497801202052_);}
	.st9{fill:#139AD6;}
	.st10{fill:#263B80;}
	.st11{fill:#232C65;}
	.st12{fill-rule:evenodd;clip-rule:evenodd;fill:#DFAC16;}
	.st13{fill-rule:evenodd;clip-rule:evenodd;fill:#BF3126;}
	.st14{fill-rule:evenodd;clip-rule:evenodd;fill:#635BFF;}
	.st15{fill:#1A2ADF;}
	.st16{display:none;opacity:0.3;}
	.st17{fill:#D40511;}
	.st18{fill:#EE7203;}
	.st19{fill:#482683;}
	.st20{fill:#341B14;}
	.st21{fill:#FFB406;}
</style>
<path class="st0" d="M97.6,44.1l-6.8-6.8c-1.6-1.6-2.9-4.8-2.9-7.1v-9.6c0-4.6-3.7-8.3-8.3-8.3h-9.6c-2.3,0-5.5-1.3-7.1-2.9
	l-6.8-6.8c-3.2-3.2-8.5-3.2-11.8,0l-6.8,6.8c-1.6,1.6-4.8,2.9-7.1,2.9h-9.6c-4.6,0-8.3,3.7-8.3,8.3v9.6c0,2.3-1.3,5.5-2.9,7.1
	l-6.8,6.8c-3.2,3.2-3.2,8.5,0,11.8l6.8,6.8c1.6,1.6,2.9,4.8,2.9,7.1v9.6c0,4.6,3.8,8.3,8.3,8.3h9.6c2.3,0,5.5,1.3,7.1,2.9l6.8,6.8
	c3.2,3.2,8.5,3.2,11.8,0l6.8-6.8c1.6-1.6,4.8-2.9,7.1-2.9h9.6c4.6,0,8.3-3.8,8.3-8.3v-9.6c0-2.3,1.3-5.5,2.9-7.1l6.8-6.8
	C100.8,52.7,100.8,47.3,97.6,44.1L97.6,44.1z M43.4,68.8L25,50.4l5.9-5.9L43.4,57l25.7-25.7l5.9,5.9L43.4,68.8z"/>
</svg>
