<?xml version="1.0" encoding="utf-8"?>
<!-- Generator: Adobe Illustrator 25.4.1, SVG Export Plug-In . SVG Version: 6.00 Build 0)  -->
<svg version="1.1" id="Layer_1" xmlns="http://www.w3.org/2000/svg" xmlns:xlink="http://www.w3.org/1999/xlink" x="0px" y="0px"
	 viewBox="0 0 100 14.6" style="enable-background:new 0 0 100 14.6;" xml:space="preserve">
<style type="text/css">
	.st0{fill:#139AD6;}
	.st1{fill:#263B80;}
	.st2{fill:#232C65;}
	.st3{fill-rule:evenodd;clip-rule:evenodd;fill:#DFAC16;}
	.st4{fill-rule:evenodd;clip-rule:evenodd;fill:#BF3126;}
	.st5{fill-rule:evenodd;clip-rule:evenodd;fill:#FFFFFF;}
	.st6{fill-rule:evenodd;clip-rule:evenodd;fill:#635BFF;}
	.st7{fill:#1A2ADF;}
	.st8{display:none;opacity:0.3;enable-background:new    ;}
</style>
<g>
	<g>
		<g>
			<path class="st0" d="M45,6.9c-0.2-0.2-0.6-0.3-1-0.3h-1.4c-0.1,0-0.2,0.1-0.2,0.2l-0.6,3.5c0,0.1,0,0.1,0.1,0.1h0.7
				c0.1,0,0.1,0,0.1-0.1l0.2-1c0-0.1,0.1-0.2,0.2-0.2h0.4c0.9,0,1.4-0.4,1.5-1.3C45.2,7.4,45.2,7.1,45,6.9z M43.3,8.3h-0.2l0.2-0.9
				c0,0,0-0.1,0.1-0.1h0.1c0.2,0,0.5,0,0.6,0.2c0.1,0,0.1,0.2,0.1,0.4C44.1,8.3,43.7,8.3,43.3,8.3z"/>
			<path class="st1" d="M35.3,6.9c-0.2-0.2-0.6-0.3-1-0.3h-1.4c-0.1,0-0.2,0.1-0.2,0.2l-0.6,3.5c0,0.1,0,0.1,0.1,0.1h0.6
				c0.1,0,0.2-0.1,0.2-0.2l0.2-1c0-0.1,0.1-0.2,0.2-0.2h0.4c0.9,0,1.4-0.4,1.5-1.3C35.5,7.4,35.4,7.1,35.3,6.9z M34.4,7.8
				c-0.1,0.5-0.4,0.5-0.8,0.5h-0.2l0.2-0.9c0,0,0-0.1,0.1-0.1h0.1c0.2,0,0.5,0,0.6,0.2C34.4,7.5,34.4,7.6,34.4,7.8z"/>
			<path class="st1" d="M37.7,7.8C37.7,7.8,37.6,7.8,37.7,7.8l-0.1,0.3V8c-0.2-0.2-0.4-0.3-0.8-0.3c-0.7,0-1.4,0.6-1.5,1.3
				c-0.1,0.4,0,0.8,0.2,1c0.2,0.3,0.5,0.3,0.8,0.3c0.6,0,0.9-0.4,0.9-0.4v0.2c0,0.1,0,0.1,0.1,0.1h0.6c0.1,0,0.2-0.1,0.2-0.2
				l0.4-2.2c0,0-0.1-0.1-0.2-0.1h-0.6V7.8z M36.7,9.7c-0.2,0-0.4-0.1-0.4-0.2c-0.1-0.1-0.1-0.3-0.1-0.5c0-0.4,0.4-0.6,0.7-0.6
				c0.2,0,0.3,0.1,0.4,0.2c0.1,0.1,0.2,0.3,0.2,0.5C37.3,9.4,37.1,9.7,36.7,9.7z"/>
			<path class="st0" d="M48,7.8h-0.6c0,0-0.1,0-0.1,0.1v0.2V8c-0.2-0.2-0.4-0.3-0.8-0.3c-0.7,0-1.4,0.6-1.5,1.3
				c-0.1,0.4,0,0.8,0.2,1s0.5,0.3,0.8,0.3c0.6,0,0.9-0.4,0.9-0.4v0.2c0,0.1,0,0.1,0.1,0.1h0.6c0.1,0,0.2-0.1,0.2-0.2l0.4-2.2
				C48.1,7.9,48.1,7.8,48,7.8z M46.4,9.7c-0.2,0-0.4-0.1-0.4-0.2c-0.1-0.1-0.1-0.3-0.1-0.5c0-0.4,0.4-0.6,0.7-0.6
				c0.2,0,0.3,0.1,0.4,0.2c0.2,0.1,0.2,0.3,0.2,0.5C47,9.4,46.8,9.7,46.4,9.7z"/>
			<path class="st1" d="M41.8,7.8h-0.7c-0.1,0-0.1,0-0.2,0.1L40,9.3L39.6,8c0-0.1-0.1-0.1-0.2-0.1h-0.6c-0.1,0-0.1,0.1-0.1,0.2
				l0.7,2.1l-0.7,1c0,0.1,0,0.2,0.1,0.2h0.6c0.1,0,0.1,0,0.2-0.1l2.2-3.1C41.9,7.9,41.9,7.8,41.8,7.8z"/>
			<path class="st0" d="M49.5,6.6h-0.6c0,0-0.1,0-0.1,0.1l-0.6,3.6c0,0.1,0,0.1,0.1,0.1h0.6c0.1,0,0.2-0.1,0.2-0.2l0.6-3.5
				C49.7,6.6,49.6,6.6,49.5,6.6z"/>
		</g>
		<path class="st1" d="M30,5.3c-0.3-0.3-0.8-0.5-1.5-0.5h-2c-0.1,0-0.2,0.1-0.3,0.2l-0.8,5.3c0,0.1,0.1,0.2,0.2,0.2h1.2l0.3-1.9v0.1
			c0-0.1,0.2-0.2,0.3-0.2H28c1.2,0,2-0.5,2.3-1.8V6.6l0,0C30.4,6,30.3,5.7,30,5.3"/>
		<path class="st0" d="M30.3,6.5L30.3,6.5L30.3,6.5C30,8,29.1,8.4,28,8.4h-0.6c-0.1,0-0.2,0.1-0.3,0.2L26.7,11c0,0.1,0,0.2,0.2,0.2
			h1c0.1,0,0.2-0.1,0.2-0.2l0,0l0.2-1.2V9.7c0-0.1,0.1-0.2,0.2-0.2h0.2c1,0,1.8-0.4,2-1.6c0.1-0.5,0-0.9-0.2-1.2
			C30.5,6.6,30.4,6.5,30.3,6.5"/>
		<path class="st2" d="M30,6.4h-0.1h-0.1c-0.2,0-0.3,0-0.5,0h-1.5h-0.1c-0.1,0-0.1,0.1-0.1,0.2l-0.3,2.1v0.1c0-0.1,0.2-0.2,0.3-0.2
			H28c1.2,0,2-0.5,2.3-1.8V6.7c-0.1,0-0.1-0.1-0.2-0.1C30.1,6.4,30.1,6.4,30,6.4"/>
	</g>
	<g id="Page-1">
		<g id="Master" transform="translate(-1)">
			<path id="path2268" class="st3" d="M25.1,7.3c0,4-3.2,7.3-7.2,7.3s-7.2-3.3-7.2-7.3l0,0c0-4,3.2-7.3,7.2-7.3
				C21.8,0,25.1,3.3,25.1,7.3L25.1,7.3z"/>
			<path id="path1350" class="st4" d="M8.2,0C4.2,0,1,3.3,1,7.3s3.2,7.3,7.2,7.3c1.9,0,3.6-0.7,4.8-1.9l0,0l0,0
				c0.3-0.2,0.5-0.5,0.7-0.8h-1.5c-0.2-0.2-0.4-0.5-0.5-0.8h2.5c0.2-0.3,0.3-0.5,0.4-0.8h-3.4C11.1,10,11,9.8,10.9,9.5h4
				c0.2-0.7,0.4-1.5,0.4-2.3c0-0.5-0.1-1.1-0.2-1.6h-4.4c0.1-0.3,0.1-0.5,0.2-0.8h4c-0.1-0.3-0.2-0.5-0.3-0.8h-3.4
				c0.1-0.3,0.3-0.5,0.4-0.8h2.5c-0.2-0.3-0.4-0.5-0.6-0.8h-1.4c0.2-0.3,0.5-0.5,0.7-0.7C11.8,0.7,10.1,0,8.2,0L8.2,0L8.2,0z"/>
			<g>
				<path class="st5" d="M10.6,6.9H11l0.1-0.7h-0.4l0.1-0.5H10c0,0-0.5,2.5-0.5,2.9c0,0.5,0.3,0.7,0.6,0.7s0.5-0.1,0.6-0.1
					c0,0-0.1,0,0,0l0.1-0.7c-0.1,0-0.1,0-0.2,0c-0.3,0-0.3-0.1-0.3-0.2L10.6,6.9z"/>
				<path class="st5" d="M13.4,7.9c0,0,0.1-0.5,0.1-0.7c0-0.5-0.3-1.1-1.1-1.1s-1.3,0.8-1.3,1.8c0,1.1,0.7,1.4,1.3,1.4
					s0.8-0.1,0.8-0.1l0.1-0.7c0,0-0.4,0.2-0.8,0.2c-0.8,0-0.7-0.6-0.7-0.6h1.6V7.9z M12.4,6.8c0.4,0,0.4,0.5,0.4,0.5h-0.9
					C11.9,7.3,12,6.8,12.4,6.8z"/>
				<path class="st5" d="M16,7.6c0-0.9,0.5-1.4,1-1.4c0.4,0,0.7,0.2,0.7,0.2l0.1-0.8c0,0-0.5-0.2-0.9-0.2c-0.9,0-1.7,0.8-1.7,2.2
					c0,1,0.5,1.6,1.4,1.6c0.3,0,0.7-0.1,0.7-0.1l0.1-0.8c0,0-0.4,0.2-0.6,0.2C16.2,8.5,16,8.1,16,7.6z"/>
				<path class="st5" d="M6.6,6.1c-0.5,0-0.9,0.2-0.9,0.2L5.6,7c0,0,0.3-0.1,0.8-0.1c0.3,0,0.5,0,0.5,0.3c0,0.1,0,0.2,0,0.2
					s-0.2,0-0.3,0c-0.7,0-1.4,0.3-1.4,1.1c0,0.7,0.5,0.8,0.7,0.8c0.5,0,0.8-0.4,0.8-0.4v0.3h0.7l0.3-2.1C7.6,6.1,6.8,6.1,6.6,6.1z
					 M6.2,8.6C6,8.6,5.9,8.4,5.9,8.3c0-0.2,0.1-0.5,0.7-0.5c0.1,0,0.1,0,0.2,0C6.8,8,6.7,8.6,6.2,8.6z"/>
				<path class="st5" d="M9,6.8c0.1,0,0.5,0,0.5,0l0.1-0.7c0,0-0.3-0.1-0.7-0.1C8.3,6,7.8,6.2,7.8,7c0,0.9,1,0.8,1,1.2
					c0,0.2-0.3,0.3-0.5,0.3c-0.4,0-0.7-0.1-0.7-0.1L7.5,9.1c0,0,0.2,0.1,0.9,0.1c0.2,0,1.2,0,1.2-1S8.7,7.4,8.7,7
					C8.6,6.9,8.7,6.8,9,6.8z"/>
				<path class="st5" d="M23.6,5.5l-0.2,1c0,0-0.3-0.4-0.7-0.4c-0.7,0-1.3,0.9-1.3,1.8c0,0.6,0.3,1.3,1,1.3c0.5,0,0.7-0.3,0.7-0.3
					v0.3h0.7l0.6-3.7L23.6,5.5z M22.6,8.5c-0.3,0-0.4-0.2-0.4-0.6c0-0.6,0.3-1,0.6-1c0.3,0,0.4,0.2,0.4,0.6S23,8.5,22.6,8.5z"/>
				<polygon class="st5" points="4.2,5.5 3.5,7.8 3.4,5.5 2.3,5.5 1.7,9.2 2.4,9.2 2.9,6.4 3,9.2 3.5,9.2 4.5,6.4 4,9.2 4.8,9.2 
					5.4,5.5 				"/>
				<path class="st5" d="M15.2,6.2c-0.3,0-0.6,0.5-0.6,0.5l0.1-0.4H14l-0.5,3h0.8C14.5,8,14.6,7,15.1,7.2c0.1-0.5,0.2-0.7,0.3-0.9
					C15.3,6.2,15.3,6.2,15.2,6.2z"/>
				<path class="st5" d="M19,6.1c-0.5,0-0.9,0.2-0.9,0.2L18,7c0,0,0.3-0.1,0.8-0.1c0.3,0,0.5,0,0.5,0.3c0,0.1,0,0.2,0,0.2
					s-0.2,0-0.3,0c-0.7,0-1.4,0.3-1.4,1.1c0,0.7,0.5,0.8,0.7,0.8c0.5,0,0.8-0.4,0.8-0.4v0.3h0.7l0.3-2.1C20.1,6.1,19.3,6.1,19,6.1z
					 M18.6,8.6c-0.2,0-0.3-0.2-0.3-0.3c0-0.2,0.1-0.5,0.7-0.5c0.1,0,0.1,0,0.2,0C19.2,8,19.1,8.6,18.6,8.6z"/>
				<path class="st5" d="M21.8,6.2c0,0,0,0-0.1,0c-0.3,0-0.6,0.5-0.6,0.5l0.1-0.4h-0.7l-0.5,3h0.8C21,8,21.1,7,21.6,7.2
					C21.6,6.6,21.7,6.4,21.8,6.2z"/>
			</g>
		</g>
	</g>
	<g>
		<path class="st6" d="M76,8.6c0-1.7-0.8-3-2.4-3s-2.5,1.3-2.5,3c0,2,1.1,3,2.7,3c0.8,0,1.4-0.2,1.8-0.4V9.9c-0.5,0.2-1,0.4-1.6,0.4
			s-1.2-0.2-1.3-1H76C76,9.1,76,8.8,76,8.6z M72.7,8c0-0.8,0.5-1.1,0.9-1.1s0.8,0.3,0.8,1.1H72.7z"/>
		<path class="st6" d="M68.5,5.6c-0.7,0-1.1,0.3-1.3,0.5l-0.1-0.4h-1.5v7.7l1.7-0.4v-1.9c0.2,0.2,0.6,0.4,1.2,0.4
			c1.2,0,2.3-1,2.3-3.1C70.8,6.6,69.7,5.6,68.5,5.6z M68.1,10.1c-0.4,0-0.6-0.1-0.8-0.3V7.3C67.5,7.1,67.7,7,68.1,7
			c0.6,0,1,0.7,1,1.5C69.2,9.5,68.7,10.1,68.1,10.1z"/>
		<polygon class="st6" points="63.4,5.2 65.1,4.8 65.1,3.5 63.4,3.8 		"/>
		<rect x="63.4" y="5.7" class="st6" width="1.7" height="5.8"/>
		<path class="st6" d="M61.6,6.2l-0.1-0.5h-1.4v5.8h1.7V7.6c0.4-0.5,1.1-0.4,1.3-0.3V5.8C62.8,5.6,62,5.5,61.6,6.2z"/>
		<path class="st6" d="M58.3,4.2l-1.6,0.3v5.3c0,1,0.7,1.7,1.7,1.7c0.5,0,0.9-0.1,1.2-0.2V10c-0.2,0.1-1.3,0.4-1.3-0.6V7h1.3V5.6
			h-1.3L58.3,4.2z"/>
		<path class="st6" d="M53.8,7.4C53.8,7.1,54,7,54.4,7c0.5,0,1.1,0.2,1.6,0.4V5.8c-0.6-0.2-1.1-0.3-1.6-0.3c-1.3,0-2.2,0.7-2.2,1.9
			c0,1.8,2.5,1.5,2.5,2.3c0,0.3-0.3,0.4-0.6,0.4c-0.6,0-1.3-0.2-1.8-0.5v1.6c0.6,0.3,1.2,0.4,1.8,0.4c1.4,0,2.3-0.7,2.3-1.9
			C56.3,7.8,53.8,8.1,53.8,7.4z"/>
	</g>
	<g>
		<path class="st7" d="M83.9,4.1L82,9l-0.8-4.1c-0.1-0.5-0.5-0.7-0.9-0.7h-3.1v0.2C77.8,4.5,78.6,4.8,79,5c0.3,0.1,0.3,0.3,0.4,0.6
			l1.5,5.7h2l3-7.1h-2V4.1z"/>
		<polygon class="st7" points="86.6,4.1 85.1,11.3 86.9,11.3 88.5,4.1 		"/>
		<path class="st7" d="M98.5,4.1h-1.6c-0.4,0-0.7,0.2-0.8,0.5l-2.7,6.7h1.9l0.4-1.1h2.4l0.2,1.1h1.7L98.5,4.1z M96.2,8.7l1-2.7
			l0.6,2.7H96.2z"/>
		<path class="st7" d="M90.9,6.1c0-0.3,0.2-0.5,0.8-0.6c0.3,0,1-0.1,1.8,0.3l0.3-1.5c-0.4-0.2-1-0.3-1.7-0.3C90.3,4,89,5,89,6.4
			c0,1,0.9,1.6,1.6,1.9c0.7,0.4,1,0.6,1,0.9c0,0.5-0.6,0.7-1.1,0.7c-0.9,0-1.5-0.3-1.9-0.5L88.3,11c0.4,0.2,1.2,0.4,2.1,0.4
			c1.9,0,3.2-1,3.2-2.4C93.5,7,90.9,6.9,90.9,6.1z"/>
	</g>
</g>
<rect x="0.1" y="-16.7" class="st8" width="24" height="21"/>
<rect x="75.7" y="-16.7" class="st8" width="24" height="21"/>
<rect x="25.5" y="-16.7" class="st8" width="24" height="21"/>
<rect x="51.2" y="-16.7" class="st8" width="24" height="21"/>
</svg>
