<?xml version="1.0" encoding="utf-8"?>
<!-- Generator: Adobe Illustrator 25.4.1, SVG Export Plug-In . SVG Version: 6.00 Build 0)  -->
<svg version="1.1" id="Layer_1" xmlns="http://www.w3.org/2000/svg" xmlns:xlink="http://www.w3.org/1999/xlink" x="0px" y="0px"
	 viewBox="0 0 100 100" style="enable-background:new 0 0 100 100;" xml:space="preserve">
<style type="text/css">
	.st0{fill:#363636;}
</style>
<g>
	<g>
		<path class="st0" d="M90.1,95H9.9C4.1,95-0.6,90.3-0.6,84.5v-69C-0.6,9.7,4.1,5,9.9,5h80.2c5.8,0,10.5,4.7,10.5,10.5v69
			C100.6,90.3,95.9,95,90.1,95z M9.9,6.2c-5.1,0-9.3,4.2-9.3,9.3v69c0,5.1,4.2,9.3,9.3,9.3h80.2c5.1,0,9.3-4.2,9.3-9.3v-69
			c0-5.1-4.2-9.3-9.3-9.3H9.9z"/>
	</g>
	<g>
		<path d="M66.1,44.2h-3.2c-0.7,0-1.3-0.6-1.3-1.3v-5.2L47.1,48.1l14.5,10.3v-5.2c0-0.7,0.6-1.3,1.3-1.3h0.6
			c9.5,0,17.3,7.8,17.3,17.3c0,4.8-1.9,9.1-5.1,12.2c6.1-3.4,10.2-9.9,10.2-17.3C85.9,53.1,77,44.2,66.1,44.2z"/>
	</g>
	<g>
		<path d="M73.1,58c-2.4-2.1-5.6-3.4-9-3.6v6.4c0,0.5-0.3,0.9-0.7,1.1c-0.4,0.2-0.9,0.2-1.3-0.1L44.2,49.1c-0.3-0.2-0.5-0.6-0.5-1
			s0.2-0.8,0.5-1l17.9-12.8c0.4-0.3,0.9-0.3,1.3-0.1c0.4,0.2,0.7,0.7,0.7,1.1v6.4H66c2.5,0,4.8,0.4,7,1.2v-14H48.8v9
			c0,0.7-0.6,1.3-1.3,1.3h-7.7c-0.7,0-1.3-0.6-1.3-1.3v-9H14.2V75h58.9V58z M32.1,72.4H16.7v-2.6h15.4V72.4z M32.1,67.3H16.7v-2.6
			h15.4V67.3z"/>
	</g>
	<g>
		<path d="M41.1,28.1v8.4h5.1v-8.4l8.4-9.5h-4.1L41.1,28.1z"/>
	</g>
	<g>
		<path d="M23.7,18.6L16,26.3h23.3l7.7-7.7C47,18.6,23.7,18.6,23.7,18.6z"/>
	</g>
	<g>
		<path d="M50.6,26.3h23.3l7.7-7.7H58.3L50.6,26.3z"/>
	</g>
	<g>
		<path d="M83.4,46.1V20.4l-7.7,7.7v14.2L83.4,46.1z"/>
	</g>
</g>
</svg>
