<?xml version="1.0" encoding="utf-8"?>
<!-- Generator: Adobe Illustrator 25.4.1, SVG Export Plug-In . SVG Version: 6.00 Build 0)  -->
<svg version="1.1" id="Layer_1" xmlns="http://www.w3.org/2000/svg" xmlns:xlink="http://www.w3.org/1999/xlink" x="0px" y="0px"
	 viewBox="0 0 100 16.2" style="enable-background:new 0 0 100 16.2;" xml:space="preserve">
<style type="text/css">
	.st0{fill:#D40511;}
	.st1{fill:#EE7203;}
	.st2{fill:#482683;}
	.st3{fill:#341B14;}
	.st4{fill:#FFB406;}
	.st5{fill:#0035AD;}
	.st6{fill:#FF7300;}
	.st7{fill:#FE7300;}
	.st8{fill:#FC7200;}
	.st9{fill:#00113A;}
	.st10{fill:#001D5D;}
	.st11{fill:#BF5600;}
	.st12{fill:#000D2B;}
	.st13{fill:#3F1C00;}
</style>
<image style="display:none;overflow:visible;enable-background:new    ;" width="4800" height="1356" xlink:href="54E2909E.png"  transform="matrix(6.996139e-03 0 0 6.996139e-03 50.747 2.8435)">
</image>
<g>
	<g>
		<g>
			<path class="st0" d="M0.3,9.4L2.1,7h2.2c0.2,0,0.2,0.1,0.1,0.3S4.1,7.7,3.9,7.9c0,0-0.1,0.2,0.2,0.2h3c-0.2,0.3-1,1.3-2.5,1.3
				H0.3z"/>
			<path class="st0" d="M10.5,8.1l-1,1.3H7l1-1.3H10.5z"/>
			<path class="st0" d="M14.2,8.1l-1,1.3h-2.6l1-1.3H14.2z"/>
			<path class="st0" d="M15,8.1c0,0-0.2,0.3-0.3,0.4c-0.3,0.4,0,0.9,1,0.9h4.1l1-1.3L15,8.1z"/>
		</g>
		<g>
			<path class="st0" d="M1.5,5.5L0.6,6.7h4.9c0.2,0,0.2,0.1,0.1,0.3S5.3,7.5,5.2,7.6S5,7.8,5.4,7.8h2c0,0,0.3-0.4,0.6-0.8
				c0.4-0.5,0-1.5-1.3-1.5H1.5z"/>
			<path class="st0" d="M14.4,7.8H8.2l1.7-2.3h2.6l-1,1.3h1.1l1-1.3h2.6L14.4,7.8z"/>
			<path class="st0" d="M19.7,5.5L18,7.8h-2.7L17,5.5H19.7z"/>
		</g>
	</g>
</g>
<g>
	<g>
		<g>
			<g>
				<g>
					<path class="st1" d="M47.7,10.6l-1-1.1l-1,1.1h-2l2-2.2l-2-2.2h2.1l1,1.1l0.9-1.1h2l-1.9,2.2l2,2.2H47.7z"/>
					<path class="st1" d="M39.9,10.6L39,7l0.9-3.4h3.8v1.5h-2.2v1h2.2v1.5h-2.2V9h2.2v1.5L39.9,10.6L39.9,10.6z"/>
				</g>
				<path class="st2" d="M38.3,3.7v2.8l0,0c-0.4-0.4-0.8-0.6-1.3-0.6c-1.1,0-1.9,0.7-2.2,1.7c-0.3-1.1-1.2-1.7-2.4-1.7
					c-1,0-1.8,0.4-2.2,1.2V6.2h-2.1v-1h2.3V3.7h-4.1v6.9h1.8V7.7H30c-0.1,0.2-0.1,0.4-0.1,0.7c0,1.4,1.1,2.5,2.5,2.5
					c1.2,0,2-0.6,2.4-1.6h-1.6c-0.2,0.3-0.4,0.4-0.8,0.4c-0.5,0-0.9-0.4-0.9-0.9h3.2c0.1,1.1,1,2.1,2.3,2.1c0.5,0,1-0.3,1.3-0.7l0,0
					v0.4h1.6V3.7H38.3z M31.6,7.7C31.7,7.3,32,7,32.5,7s0.8,0.3,0.9,0.7H31.6z M37.3,9.5c-0.6,0-1-0.6-1-1.1c0-0.6,0.3-1.2,1-1.2
					s0.9,0.6,0.9,1.2C38.3,9,38,9.5,37.3,9.5L37.3,9.5z"/>
			</g>
		</g>
	</g>
</g>
<g>
	<path class="st3" d="M93,15.9c0.1-0.1,3.7-1.6,4.8-2.5c1.2-1,1.8-2.3,1.8-3.9V1.8h-0.1c-2.8-1.5-6.3-1.4-6.5-1.4
		c-0.1,0-3.6-0.1-6.5,1.4h-0.1v7.7c0,1.6,0.6,3,1.8,3.9C89.4,14.4,92.9,15.9,93,15.9"/>
	<path class="st4" d="M93,16.1c0,0-3.7-1.6-4.9-2.6c-1.2-1-1.8-2.4-1.8-4v-8C89.3-0.1,93,0,93,0s3.7-0.1,6.7,1.5v7.9
		c0,1.6-0.6,3-1.8,4C96.8,14.5,93,16.1,93,16.1 M86.9,9.5c0,1.5,0.5,2.7,1.6,3.6c1,0.8,3.8,2,4.6,2.4c0.8-0.3,3.6-1.6,4.6-2.4
		c1.1-0.9,1.6-2.1,1.6-3.6V1.7C95.4,1.3,90.7,1.5,87,4.9L86.9,9.5L86.9,9.5z"/>
	<path class="st4" d="M96.8,8.4c0.5,0.3,0.7,0.5,0.7,0.9s-0.3,0.6-0.7,0.6c-0.4,0-0.8-0.2-1.1-0.5v1.1c0.4,0.2,0.8,0.4,1.3,0.4
		c1.2,0,1.7-0.8,1.7-1.6c0-0.7-0.2-1.2-1.2-1.8c-0.4-0.3-0.8-0.4-0.8-0.9S97.1,6,97.4,6c0.4,0,0.8,0.2,1.1,0.5v-1
		c-0.2-0.2-0.6-0.4-1.3-0.4c-0.8,0-1.6,0.6-1.6,1.5C95.6,7.4,95.9,7.9,96.8,8.4 M92.8,10.9c0.1,0,0.3,0.1,0.5,0.1
		c1.3,0,2.1-1.2,2.1-2.9s-0.8-2.8-2.2-2.8c-0.6,0-1.2,0.1-1.6,0.4v7.7h1.2V10.9L92.8,10.9z M92.8,6.2c0.1,0,0.3-0.1,0.4-0.1
		c0.7,0,1,0.5,1,1.9c0,1.3-0.3,1.9-1,1.9c-0.2,0-0.3,0-0.4-0.1V6.2L92.8,6.2z M89.2,10.9c0.7,0,1.3-0.2,1.8-0.5V5.3h-1.2v4.5
		c-0.1,0.1-0.3,0.1-0.5,0.1c-0.5,0-0.6-0.5-0.6-0.8V5.3h-1.2V9C87.4,10.3,88.1,10.9,89.2,10.9"/>
</g>
<image style="display:none;overflow:visible;" width="1600" height="900" xlink:href="../../All Assest Custom page/Brands Logos/Ems-Logo.png"  transform="matrix(2.214533e-02 0 0 2.214533e-02 50.8131 -2.1531)">
</image>
<image style="display:none;overflow:visible;" width="1600" height="900" xlink:href="../../../EMS_logo_PNG3.png"  transform="matrix(2.196020e-02 0 0 2.196020e-02 51.2637 -2.1244)">
</image>
<image style="display:none;overflow:visible;" width="4800" height="1356" xlink:href="777A4AB1.png"  transform="matrix(6.948529e-03 0 0 6.948529e-03 50.7941 3.4342)">
</image>
<g>
	<path class="st5" d="M66.2,7.4c-0.1,0.3-0.3,0.6-0.4,0.9c-0.2,0.3-0.3,0.6-0.5,0.9c-0.2,0.3-0.3,0.7-0.5,1
		c-0.1,0.1-0.1,0.1-0.2,0.1c-0.1,0-0.2,0-0.4,0c0,0-0.1,0-0.1,0c0,0,0-0.1,0-0.1c0-0.2,0-0.4,0-0.6c0-0.1,0-0.1,0-0.2
		c0-0.2,0-0.3,0-0.5c0-0.2,0-0.4,0-0.6c0-0.2,0-0.3,0-0.5c0-0.2,0-0.3,0-0.5c0,0,0,0,0-0.1c0,0,0,0,0,0c0,0,0,0,0,0.1
		c-0.1,0.4-0.2,0.8-0.3,1.1c-0.1,0.5-0.2,0.9-0.4,1.4c0,0.1,0,0.2-0.1,0.3c0,0,0,0.1,0,0.1c-0.5,0-0.9,0-1.4,0
		c0.5-1.8,0.9-3.5,1.4-5.3c0.1,0,1.7,0,1.8,0c0,0,0,0,0,0.1c0,0.5,0,0.9,0,1.4c0,0.2,0,0.5,0,0.7c0,0,0,0,0,0
		c0.1-0.1,0.1-0.2,0.2-0.3c0.2-0.4,0.4-0.7,0.6-1.1c0.1-0.3,0.3-0.5,0.4-0.8c0,0,0-0.1,0.1-0.1c0.5,0,1.1,0,1.6,0c0,0,0,0,0.1,0
		c-0.5,1.8-0.9,3.5-1.4,5.3c-0.5,0-0.9,0-1.4,0c0,0,0-0.1,0-0.1c0.1-0.3,0.2-0.6,0.3-0.9C65.9,8.7,66.1,8,66.2,7.4
		C66.2,7.4,66.2,7.4,66.2,7.4 M66.3,7.3C66.3,7.3,66.3,7.3,66.3,7.3z"/>
	<path class="st5" d="M70.3,6.4c-0.1,0-0.3,0-0.4,0c0,0-0.1,0-0.1,0.1c-0.1,0.2-0.1,0.4-0.2,0.6c0,0,0,0,0,0.1c0,0,0.1,0,0.1,0
		c0.3,0,0.5,0,0.8,0c0,0,0.1,0,0.1,0c0.2,0.2,0.4,0.4,0.6,0.5c0,0,0,0.1,0,0.1c-0.1,0.5-0.2,0.9-0.4,1.4c0,0.2-0.1,0.3-0.1,0.5
		c0,0,0,0.1-0.1,0.1c-0.3,0.2-0.6,0.4-0.9,0.6c0,0-0.1,0-0.1,0c-0.5,0-1,0-1.4,0c-0.1,0-0.1,0-0.1-0.1c-0.2-0.2-0.4-0.4-0.7-0.6
		c0,0,0,0,0-0.1c0.1-0.3,0.2-0.6,0.2-0.9c0,0,0,0,0,0c0.1,0,1.3,0,1.4,0c0,0.1,0,0.2-0.1,0.3c0.2,0,0.3,0,0.5,0
		c0.1-0.3,0.1-0.5,0.2-0.8c0,0-0.1,0-0.1,0c-0.3,0-0.7,0-1,0c0,0-0.1,0-0.1,0c-0.2-0.2-0.3-0.3-0.5-0.4c0,0-0.1-0.1,0-0.1
		c0.1-0.4,0.2-0.8,0.3-1.1c0.1-0.2,0.1-0.5,0.2-0.7c0-0.1,0-0.1,0.1-0.1c0.3-0.2,0.6-0.4,0.8-0.6c0,0,0.1,0,0.1,0c0.5,0,0.9,0,1.4,0
		c0,0,0.1,0,0.1,0c0.2,0.2,0.4,0.4,0.7,0.6c0,0,0,0.1,0,0.1c-0.1,0.3-0.1,0.5-0.2,0.8c0,0,0,0,0,0.1c-0.1,0-1.3,0-1.4,0
		C70.3,6.5,70.3,6.5,70.3,6.4C70.3,6.4,70.3,6.4,70.3,6.4z"/>
	<path class="st5" d="M62.1,7.9C62,8,62,8.2,61.9,8.3c-0.4,0-0.8,0-1.2,0c-0.1,0.2-0.1,0.4-0.2,0.6c0.4,0,0.8,0,1.2,0
		c-0.1,0.5-0.2,0.9-0.4,1.4c-0.9,0-1.8,0-2.7,0c0.5-1.8,0.9-3.5,1.4-5.3c0.9,0,1.8,0,2.7,0c-0.1,0.5-0.2,0.9-0.4,1.3
		c-0.4,0-0.8,0-1.2,0c-0.1,0.2-0.1,0.4-0.2,0.6c0.4,0,0.8,0,1.2,0C62.2,7.3,62.1,7.6,62.1,7.9z"/>
	<path class="st6" d="M74.6,6.9c2.3,0,4.6,0,6.9,0c0,0,0,0.5,0,0.6c-3.1,0-6.2,0-9.3,0c0.1-0.2,0.1-0.4,0.2-0.6
		C73.1,6.9,73.9,6.9,74.6,6.9z"/>
	<path class="st6" d="M80,6c0.5,0,1,0,1.5,0c0,0.1,0,0.5,0,0.6c-3,0-6,0-9,0c0.1-0.2,0.1-0.4,0.2-0.6C75.1,6,77.6,6,80,6z"/>
	<path class="st6" d="M78.1,5.6c-1.8,0-3.6,0-5.4,0c0.1-0.2,0.1-0.4,0.2-0.6c2.9,0,5.7,0,8.6,0c0,0,0,0.5,0,0.6
		C80.4,5.6,79.2,5.6,78.1,5.6z"/>
	<path class="st6" d="M53.4,5.1C53.4,5.1,53.4,5.1,53.4,5.1c2,0,3.9,0,5.9,0c0,0,0.1,0,0.1,0c-0.1,0.2-0.1,0.4-0.2,0.6
		c0,0,0,0-0.1,0c-1.7,0-3.5,0-5.2,0c0,0-0.1,0-0.1,0C53.7,5.4,53.5,5.3,53.4,5.1C53.4,5.1,53.4,5.1,53.4,5.1z"/>
	<path class="st6" d="M54.1,6C54.2,6,54.2,6,54.1,6c1.7,0,3.2,0,4.8,0C59,6,59,6,59,6c0,0,0,0,0,0.1c0,0.2-0.1,0.3-0.1,0.5
		c0,0,0,0,0,0c-1.4,0-2.8,0-4.3,0C54.5,6.4,54.3,6.2,54.1,6C54.1,6,54.1,6,54.1,6z"/>
	<path class="st6" d="M54.9,6.9C55,6.9,55,6.9,54.9,6.9c1.3,0,2.5,0,3.8,0c0,0,0.1,0,0.1,0c-0.1,0.2-0.1,0.4-0.2,0.6c0,0,0,0-0.1,0
		c-1,0-2.1,0-3.1,0c-0.1,0-0.1,0-0.1-0.1C55.2,7.3,55.1,7.1,54.9,6.9C54.9,6.9,54.9,6.9,54.9,6.9z"/>
	<path class="st6" d="M58.3,8.5c-0.7,0-1.3,0-2,0c0,0-0.1,0-0.1-0.1c-0.1-0.2-0.3-0.3-0.4-0.5c0,0,0,0,0,0c0.9,0,1.9,0,2.8,0
		C58.5,8.1,58.5,8.3,58.3,8.5C58.4,8.5,58.3,8.5,58.3,8.5z"/>
	<path class="st7" d="M57,8.8c0.4,0,0.9,0,1.3,0c-0.1,0.2-0.1,0.4-0.2,0.6c0,0,0,0-0.1,0c-0.3,0-0.7,0-1,0c0,0-0.1,0-0.1,0
		c-0.1-0.2-0.3-0.3-0.4-0.5c0,0,0,0,0,0c0,0,0,0,0,0c0,0,0,0,0,0C56.7,8.8,56.8,8.8,57,8.8z"/>
	<path class="st8" d="M57.3,9.8C57.3,9.8,57.3,9.8,57.3,9.8C57.4,9.7,57.4,9.7,57.3,9.8c0.2,0,0.4,0,0.6,0c0,0,0,0,0.1,0
		c-0.1,0.2-0.1,0.4-0.2,0.6C57.7,10.2,57.5,10,57.3,9.8z"/>
	<path class="st9" d="M64.2,7.5C64.2,7.4,64.3,7.4,64.2,7.5C64.3,7.4,64.3,7.4,64.2,7.5C64.3,7.4,64.3,7.4,64.2,7.5
		C64.3,7.5,64.3,7.5,64.2,7.5z"/>
	<path class="st10" d="M66.2,7.4C66.2,7.4,66.2,7.4,66.2,7.4C66.2,7.4,66.2,7.4,66.2,7.4z"/>
	<path class="st11" d="M53.4,5.1C53.4,5.1,53.4,5.1,53.4,5.1C53.4,5.1,53.4,5.1,53.4,5.1z"/>
	<path class="st12" d="M65.3,7.2C65.3,7.2,65.3,7.2,65.3,7.2C65.3,7.2,65.3,7.2,65.3,7.2z"/>
	<path class="st11" d="M54.9,6.9C54.9,6.9,54.9,6.9,54.9,6.9C54.9,6.9,54.9,6.9,54.9,6.9C54.9,6.9,54.9,6.9,54.9,6.9z"/>
	<path class="st12" d="M70.3,6.4C70.3,6.4,70.3,6.4,70.3,6.4C70.3,6.4,70.3,6.4,70.3,6.4z"/>
	<path class="st13" d="M54.1,6C54.1,6,54.1,6,54.1,6C54.1,6,54.1,6,54.1,6C54.1,6,54.1,6,54.1,6z"/>
</g>
</svg>
