<?xml version="1.0" encoding="utf-8"?>
<!-- Generator: Adobe Illustrator 25.4.1, SVG Export Plug-In . SVG Version: 6.00 Build 0)  -->
<svg version="1.1" id="Layer_1" xmlns="http://www.w3.org/2000/svg" xmlns:xlink="http://www.w3.org/1999/xlink" x="0px" y="0px"
	 viewBox="0 0 100 100" style="enable-background:new 0 0 100 100;" xml:space="preserve">
<style type="text/css">
	.st0{fill:#18BBF4;}
</style>
<g>
	<path class="st0" d="M87.6,67.2H27.6c-1.1,0-1.9-0.9-1.9-1.9s0.9-1.9,1.9-1.9h58.6l9.5-37.8H19.3c-1.1,0-1.9-0.9-1.9-1.9
		c0-1.1,0.9-1.9,1.9-1.9h78.8c1.1,0,1.9,0.9,1.9,1.9c0,0.2,0,0.3-0.1,0.5L89.5,65.8C89.3,66.6,88.5,67.2,87.6,67.2L87.6,67.2z"/>
	<path class="st0" d="M27.6,67.2c-0.9,0-1.7-0.6-1.9-1.5L14.1,7.3H1.9C0.9,7.3,0,6.4,0,5.3s0.9-1.9,1.9-1.9h13.7
		c0.9,0,1.7,0.6,1.9,1.5l11.9,60c0.2,1-0.5,2.1-1.5,2.3C27.8,67.2,27.7,67.2,27.6,67.2L27.6,67.2z"/>
	<path class="st0" d="M87.6,80H34c-4.6,0.1-8.4-3.6-8.4-8.2c-0.1-4.6,3.6-8.4,8.2-8.4c0.1,0,0.1,0,0.2,0c1.1,0,1.9,0.9,1.9,1.9
		S35,67.2,34,67.2c-2.5,0-4.5,1.9-4.6,4.4c0,2.5,1.9,4.5,4.4,4.6c0,0,0.1,0,0.1,0h53.6c1.1,0,1.9,0.9,1.9,1.9
		C89.5,79.2,88.7,80,87.6,80z"/>
	<path class="st0" d="M39.5,96.6c-4,0-7.3-3.3-7.3-7.3c0-4,3.3-7.3,7.3-7.3s7.3,3.3,7.3,7.3c0,0,0,0,0,0
		C46.7,93.3,43.5,96.6,39.5,96.6z M39.5,85.9c-1.9,0-3.4,1.5-3.4,3.4c0,1.9,1.5,3.4,3.4,3.4c1.9,0,3.4-1.5,3.4-3.4
		C42.9,87.4,41.4,85.9,39.5,85.9z"/>
	<path class="st0" d="M75.7,96.6c-4,0-7.3-3.3-7.3-7.3c0-4,3.3-7.3,7.3-7.3c4,0,7.3,3.3,7.3,7.3c0,0,0,0,0,0
		C83,93.3,79.7,96.6,75.7,96.6z M75.7,85.9c-1.9,0-3.4,1.5-3.4,3.4c0,1.9,1.5,3.4,3.4,3.4c1.9,0,3.4-1.5,3.4-3.4
		C79.1,87.4,77.6,85.9,75.7,85.9z"/>
</g>
</svg>
