<?xml version="1.0" encoding="utf-8"?>
<!-- Generator: Adobe Illustrator 25.4.1, SVG Export Plug-In . SVG Version: 6.00 Build 0)  -->
<svg version="1.1" id="Layer_1" xmlns="http://www.w3.org/2000/svg" xmlns:xlink="http://www.w3.org/1999/xlink" x="0px" y="0px"
	 viewBox="0 0 100 89.5" style="enable-background:new 0 0 100 89.5;" xml:space="preserve">
<style type="text/css">
	.st0{fill:none;stroke:#363636;stroke-width:1.1443;stroke-miterlimit:10;}
</style>
<g>
	<path class="st0" d="M89.6,88.7H10.4c-5.4,0-9.9-4.5-9.9-9.9V10.7c0-5.4,4.5-9.9,9.9-9.9h79.2c5.4,0,9.9,4.5,9.9,9.9v68.1
		C99.5,84.2,95,88.7,89.6,88.7z"/>
	<g>
		<path d="M60.2,64.5c-1.9,1.4-4,2.2-6,2.8C40.3,71,25.7,62.2,22.9,48c-2.1-10.4,0.9-19.3,9.2-26.1c4.7-3.9,10.2-5.6,16.2-5.4
			c12,0.4,22.6,9.8,24,21.8c0.2,1.5,0.3,3,0.4,4.5c-0.1,0-0.1,0.1-0.2,0.1c-0.1-0.1-0.4-0.3-0.6-0.5C65.7,49.6,59.5,57,53.2,64.6
			C55.7,64.5,57.9,64.5,60.2,64.5z M49.9,54.7c0.5-0.1,0.9-0.1,1.4-0.2c3.5-0.6,6-3.7,6-7.2c0-3.6-2.7-6.7-6.1-7.2
			c-1.9-0.2-4-0.1-5.9-0.1c-1.7,0-2.8-1-2.8-2.4s1.2-2.5,2.8-2.5c2.7,0,5.4,0,8,0c1.6,0,2.7-1,2.7-2.4c0-1.4-1.2-2.5-2.7-2.5
			c-1.2,0-2.2,0-3.5,0c0-0.9,0-1.7,0-2.4c0-1.4-1.1-2.6-2.4-2.6c-1.4,0-2.5,1.1-2.5,2.6c0,0.8,0,1.5,0,2.3c-0.2,0-0.4,0-0.5,0.1
			c-3.8,0.4-6.7,3.4-6.8,7c-0.1,3.9,2.4,7.1,6.2,7.6c1.9,0.3,3.9,0.1,5.7,0.1c1.7,0,2.8,1,2.8,2.5c0,1.4-1.2,2.5-2.8,2.5
			c-2.7,0-5.4,0-8,0c-1.6,0-2.7,1-2.7,2.4s1.2,2.4,2.8,2.4c1.2,0,2.2,0,3.5,0c0,0.8,0,1.5,0,2.2c0,1.7,1,2.8,2.4,2.8
			c1.5,0,2.5-1.2,2.5-2.8C49.9,56,49.9,55.4,49.9,54.7z"/>
		<path d="M79.6,51c-1.6-1.9-3-3.5-4.5-5.2C75,45.6,75,45.2,75,44.9c0.5-6-0.6-11.7-3.8-16.9C66.7,20,59.8,15.3,50.7,14.1
			c-12.9-1.7-25.2,6.4-29.4,18.8C17.5,44.2,20.7,56,29.7,64c8.7,7.6,21.7,8.8,31.8,2.7c0.2-0.1,0.4-0.3,0.7-0.4
			c0,0.2,0.1,0.4,0.1,0.6c0,1.5,0,3.1,0,4.6c0,0.4-0.1,0.6-0.5,0.9c-19,9.2-42.1-2.2-46.6-22.9C11.6,33,20.7,16.7,36.6,10.9
			c19-6.7,39.9,5.2,43.5,25.1C81.1,41.1,80.9,46,79.6,51z"/>
		<path d="M64.7,62c-2.1,0-4.1,0-6.2,0c4.6-5.3,9-10.6,13.6-15.9c4.6,5.2,9,10.6,13.6,15.9c-2.2,0-4.1,0-6.1,0c0,6.2,0,12.3,0,18.5
			c-4.9,0-9.8,0-14.7,0C64.7,74.3,64.7,68.2,64.7,62z"/>
	</g>
</g>
</svg>
