<?xml version="1.0" encoding="utf-8"?>
<!-- Generator: Adobe Illustrator 25.4.1, SVG Export Plug-In . SVG Version: 6.00 Build 0)  -->
<svg version="1.1" id="Layer_1" xmlns="http://www.w3.org/2000/svg" xmlns:xlink="http://www.w3.org/1999/xlink" x="0px" y="0px"
	 viewBox="0 0 100 100" style="enable-background:new 0 0 100 100;" xml:space="preserve">
<style type="text/css">
	.st0{fill:#099BFC;}
	.st1{fill:#FFFFFF;}
	.st2{fill:none;stroke:#363636;stroke-width:1.1565;stroke-miterlimit:10;}
	.st3{fill-rule:evenodd;clip-rule:evenodd;}
	.st4{fill-rule:evenodd;clip-rule:evenodd;fill:#FFFFFF;}
	.st5{fill:none;stroke:url(#SVGID_1_);stroke-width:0.823;stroke-miterlimit:10;}
	.st6{fill:url(#SVGID_00000042004533158430193370000000374877276050330255_);}
	.st7{fill:url(#SVGID_00000062156815132343290080000002202034646805362603_);}
	.st8{fill:url(#SVGID_00000057120604221184269930000007674849964417684398_);}
	.st9{fill:#139AD6;}
	.st10{fill:#263B80;}
	.st11{fill:#232C65;}
	.st12{fill-rule:evenodd;clip-rule:evenodd;fill:#DFAC16;}
	.st13{fill-rule:evenodd;clip-rule:evenodd;fill:#BF3126;}
	.st14{fill-rule:evenodd;clip-rule:evenodd;fill:#635BFF;}
	.st15{fill:#1A2ADF;}
	.st16{display:none;opacity:0.3;}
	.st17{fill:#D40511;}
	.st18{fill:#EE7203;}
	.st19{fill:#482683;}
	.st20{fill:#341B14;}
	.st21{fill:#FFB406;}
	.st22{fill:#009900;}
	.st23{fill:#FF0000;}
	.st24{fill:#BD3D44;}
	.st25{fill:#192F5D;}
	.st26{fill:#AE1C28;}
	.st27{fill:#21468B;}
	.st28{fill:#BD0034;}
	.st29{fill:#1A237B;}
</style>
<g>
	<path class="st1" d="M0,17.2h100v65.6H0V17.2z"/>
	<path class="st28" d="M45.8,17.2v27.6H0v11.7h45.8v26.3h9.3V56.5H100V44.8H55.1V17.2L45.8,17.2z"/>
	<path class="st29" d="M42.7,17.2H7.8l34.9,22.1V17.2z"/>
	<path class="st29" d="M0,40.9h24.6L0,25.3V40.9z"/>
	<path class="st28" d="M0,17.2V21l29.5,18.4h7.2c0,0-29.1-18-36-22.3L0,17.2z"/>
	<path class="st29" d="M42.7,82.8H7.8l34.9-22.1V82.8z"/>
	<path class="st29" d="M0,59.1h24.6L0,74.7V59.1z"/>
	<path class="st28" d="M0,82.8V79l29.5-18.4h7.2c0,0-29.1,18-36,22.3H0z"/>
	<path class="st29" d="M57.3,17.2h34.9L57.3,39.2V17.2z"/>
	<path class="st29" d="M100,40.9H75.4L100,25.3V40.9z"/>
	<path class="st28" d="M100,17.2V21L70.5,39.4h-7.2c0,0,29.1-18,36-22.2L100,17.2z"/>
	<path class="st29" d="M57.3,82.8h34.9L57.3,60.7V82.8z"/>
	<path class="st29" d="M100,59.1H75.4L100,74.7V59.1z"/>
	<path class="st28" d="M100,82.8V79L70.5,60.6h-7.2c0,0,29.1,18,36,22.2L100,82.8z"/>
</g>
</svg>
