<?xml version="1.0" encoding="utf-8"?>
<!-- Generator: Adobe Illustrator 25.4.1, SVG Export Plug-In . SVG Version: 6.00 Build 0)  -->
<svg version="1.1" id="Capa_1" xmlns="http://www.w3.org/2000/svg" xmlns:xlink="http://www.w3.org/1999/xlink" x="0px" y="0px"
	 viewBox="0 0 400 400" style="enable-background:new 0 0 400 400;" xml:space="preserve">
<style type="text/css">
	.st0{fill:#FFFFFF;}
</style>
<g>
	<g>
		<path class="st0" d="M390.3,176.4L363,149.2c-6.5-6.5-11.8-19.3-11.8-28.4V82.1c0-18.3-15-33.3-33.3-33.4h-38.6
			c-9.2,0-22-5.3-28.5-11.8L223.6,9.7c-13-13-34.2-13-47.1,0L149.2,37c-6.5,6.5-19.3,11.8-28.5,11.8H82.1c-18.3,0-33.3,15-33.3,33.3
			v38.6c0,9.1-5.3,22-11.8,28.4L9.7,176.4c-13,13-13,34.2,0,47.2L37,250.9c6.5,6.5,11.8,19.3,11.8,28.4v38.6
			c0,18.3,15,33.3,33.3,33.3h38.6c9.2,0,22,5.3,28.5,11.8l27.3,27.3c13,13,34.2,13,47.1,0l27.3-27.3c6.5-6.5,19.3-11.8,28.5-11.8
			h38.6c18.3,0,33.3-15,33.3-33.3v-38.6c0-9.2,5.3-22,11.8-28.4l27.3-27.3C403.2,210.6,403.2,189.4,390.3,176.4z M173.5,275
			L100,201.4l23.6-23.6l50,50L276.4,125l23.6,23.6L173.5,275z"/>
	</g>
</g>
</svg>
