<?xml version="1.0" encoding="utf-8"?>
<!-- Generator: Adobe Illustrator 25.4.1, SVG Export Plug-In . SVG Version: 6.00 Build 0)  -->
<svg version="1.1" id="Layer_1" xmlns="http://www.w3.org/2000/svg" xmlns:xlink="http://www.w3.org/1999/xlink" x="0px" y="0px"
	 viewBox="0 0 100 100" style="enable-background:new 0 0 100 100;" xml:space="preserve">
<style type="text/css">
	.st0{fill:#099BFC;}
	.st1{fill-rule:evenodd;clip-rule:evenodd;fill:#FFFFFF;}
	.st2{fill:#FFFFFF;}
</style>
<circle class="st0" cx="50" cy="50" r="50"/>
<g id="Layer_23_00000044882537038042688110000007424328497672572572_">
	<path class="st2" d="M34.7,54.6l9.3,9.3c1.7,1.7,4.4,1.7,6.1,0l2.8-2.8c2.1-2.2,5.6-2.2,7.8,0c0,0,0,0,0,0l5.9,5.9
		c2.1,2.2,2.1,5.6,0,7.8L64,77.4C58.4,83,49.7,84,43,79.8c-4.9-3.1-9.4-6.7-13.5-10.8c-4.1-4-7.8-8.5-10.8-13.4
		c-4.2-6.7-3.2-15.4,2.4-21l2.6-2.6c2.2-2.1,5.6-2.1,7.8,0l5.9,6c2.2,2.1,2.2,5.6,0,7.8c0,0,0,0,0,0l-2.8,2.7
		C33,50.1,33,52.9,34.7,54.6L34.7,54.6z"/>
	<path class="st2" d="M66.1,17.6c-9.8,0-17.7,6.8-17.7,15.2c0,3.1,1.1,6.2,3.1,8.6c-1.2,2.7-3.3,5-5.9,6.5c3.6,0.5,7.3-0.1,10.6-1.5
		l0.9-0.5c2.8,1.5,5.9,2.2,9.1,2.2c9.7,0,17.7-6.8,17.7-15.2S75.9,17.6,66.1,17.6L66.1,17.6z M57.7,34.8c-1.1,0-2-0.9-2-2
		c0-1.1,0.9-2,2-2c1.1,0,2,0.9,2,2c0,0,0,0,0,0C59.7,33.9,58.8,34.8,57.7,34.8z M66.1,34.8c-1.1,0-2-0.9-2-2c0-1.1,0.9-2,2-2
		c1.1,0,2,0.9,2,2c0,0,0,0,0,0C68.1,33.9,67.2,34.8,66.1,34.8z M74.5,34.8c-1.1,0-1.9-1-1.9-2.1c0-1.1,1-1.9,2.1-1.9
		c1.1,0,1.9,0.9,1.9,2C76.6,33.9,75.7,34.8,74.5,34.8C74.6,34.8,74.6,34.8,74.5,34.8z"/>
</g>
</svg>
