<?xml version="1.0" encoding="utf-8"?>
<!-- Generator: Adobe Illustrator 25.4.1, SVG Export Plug-In . SVG Version: 6.00 Build 0)  -->
<svg version="1.1" id="Layer_1" xmlns="http://www.w3.org/2000/svg" xmlns:xlink="http://www.w3.org/1999/xlink" x="0px" y="0px"
	 viewBox="0 0 100 100" style="enable-background:new 0 0 100 100;" xml:space="preserve">
<style type="text/css">
	.st0{fill:#099BFC;}
	.st1{fill-rule:evenodd;clip-rule:evenodd;fill:#FFFFFF;}
	.st2{fill:#FFFFFF;}
</style>
<circle class="st0" cx="50" cy="50" r="50"/>
<g id="Layer_x0020_1_00000010296524100003728670000013431554315427982270_">
	<g id="_379733592_00000113338871204731945500000018048469175434062248_">
		<path id="_379733664_00000150782217383772490710000011652384156808146610_" class="st1" d="M40.4,47.8L32,41.7L16.3,30.3v37.5
			c0,0.8,0.3,1.5,0.8,2c0.4,0.4,1,0.7,1.6,0.8L40.4,47.8z"/>
		<path id="_379732920_00000018938698059030601830000017165221830397922191_" class="st1" d="M66.8,40.1l14.9-10.8H18.3l14.9,10.8
			L50,52.2L66.8,40.1z"/>
		<path id="_379733064_00000158713835699908070640000006431552174562452356_" class="st1" d="M78.6,70.7L57.9,49l-7.3,5.3
			c-0.3,0.3-0.8,0.3-1.2,0v0L42.1,49L21.4,70.7H78.6z"/>
		<path id="_379733088_00000010293448720763141190000009463798468026413218_" class="st1" d="M83.7,67.8V30.3L68,41.7l-8.4,6.1
			l21.7,22.8c0.6-0.1,1.2-0.4,1.6-0.8C83.4,69.3,83.7,68.6,83.7,67.8L83.7,67.8z"/>
	</g>
</g>
</svg>
