<?xml version="1.0" encoding="utf-8"?>
<!-- Generator: Adobe Illustrator 25.4.1, SVG Export Plug-In . SVG Version: 6.00 Build 0)  -->
<svg version="1.1" id="Layer_1" xmlns="http://www.w3.org/2000/svg" xmlns:xlink="http://www.w3.org/1999/xlink" x="0px" y="0px"
	 viewBox="0 0 100 100" style="enable-background:new 0 0 100 100;" xml:space="preserve">
<style type="text/css">
	.st0{fill:#099BFC;}
	.st1{fill:#FFFFFF;}
	.st2{fill:none;stroke:#363636;stroke-width:1.1565;stroke-miterlimit:10;}
	.st3{fill-rule:evenodd;clip-rule:evenodd;}
	.st4{fill-rule:evenodd;clip-rule:evenodd;fill:#FFFFFF;}
	.st5{fill:none;stroke:url(#SVGID_1_);stroke-width:0.823;stroke-miterlimit:10;}
	.st6{fill:url(#SVGID_00000083067231911223437680000012767824709900733852_);}
	.st7{fill:url(#SVGID_00000171715288761817773020000002481593993895118489_);}
	.st8{fill:url(#SVGID_00000080181060907925388750000015131627937300551823_);}
	.st9{fill:#139AD6;}
	.st10{fill:#263B80;}
	.st11{fill:#232C65;}
	.st12{fill-rule:evenodd;clip-rule:evenodd;fill:#DFAC16;}
	.st13{fill-rule:evenodd;clip-rule:evenodd;fill:#BF3126;}
	.st14{fill-rule:evenodd;clip-rule:evenodd;fill:#635BFF;}
	.st15{fill:#1A2ADF;}
	.st16{display:none;opacity:0.3;}
	.st17{fill:#D40511;}
	.st18{fill:#EE7203;}
	.st19{fill:#482683;}
	.st20{fill:#341B14;}
	.st21{fill:#FFB406;}
	.st22{fill:#009900;}
	.st23{fill:#FF0000;}
	.st24{fill:#BD3D44;}
	.st25{fill:#192F5D;}
	.st26{fill:#AE1C28;}
	.st27{fill:#21468B;}
	.st28{fill:#BD0034;}
	.st29{fill:#1A237B;}
</style>
<g id="Layer_50">
	<path class="st1" d="M0,72.4h100v5H0V72.4z"/>
	<path class="st1" d="M0,62.4h100v5H0V62.4z"/>
	<path class="st1" d="M0,52.5h100v5H0V52.5z"/>
	<path class="st1" d="M0,42.5h100v5H0V42.5z"/>
	<path class="st1" d="M0,32.6h100v5H0V32.6z"/>
	<path class="st1" d="M0,22.6h100v5H0V22.6z"/>
	<path class="st24" d="M0,77.4h100v5H0V77.4z"/>
	<path class="st24" d="M0,67.4h100v5H0V67.4z"/>
	<path class="st24" d="M0,57.5h100v5H0V57.5z"/>
	<path class="st24" d="M0,47.5h100v5H0V47.5z"/>
	<path class="st24" d="M0,37.6h100v5H0V37.6z"/>
	<path class="st24" d="M0,27.6h100v5H0V27.6z"/>
	<path class="st24" d="M0,17.6h100v5H0V17.6z"/>
	<path class="st25" d="M0,17.6h42.2V47H0V17.6z"/>
	<g>
		<path class="st1" d="M2.9,22.3l1-0.7l1,0.7l-0.4-1.2l1-0.7H4.3l-0.4-1.2l-0.4,1.2H2.3l1,0.7L2.9,22.3z"/>
		<path class="st1" d="M3.9,25l-0.4,1.2H2.3l1,0.7l-0.4,1.2l1-0.7l1,0.7l-0.4-1.2l1-0.7H4.3L3.9,25z"/>
		<path class="st1" d="M3.9,30.8L3.6,32H2.3l1,0.7l-0.4,1.2l1-0.7l1,0.7l-0.4-1.2l1-0.7H4.3L3.9,30.8z"/>
		<path class="st1" d="M3.9,36.6l-0.4,1.2H2.3l1,0.7l-0.4,1.2l1-0.7l1,0.7l-0.4-1.2l1-0.7H4.3L3.9,36.6z"/>
		<path class="st1" d="M4.3,43.6l-0.4-1.2l-0.4,1.2H2.3l1,0.7l-0.4,1.2l1-0.7l1,0.7l-0.4-1.2l1-0.7H4.3z"/>
		<path class="st1" d="M9.4,22.3l1-0.7l1,0.7l-0.4-1.2l1-0.7h-1.2l-0.4-1.2l-0.4,1.2H8.8l1,0.7L9.4,22.3z"/>
		<path class="st1" d="M10.4,25l-0.4,1.2H8.8l1,0.7l-0.4,1.2l1-0.7l1,0.7l-0.4-1.2l1-0.7h-1.2L10.4,25z"/>
		<path class="st1" d="M10.4,30.8L10.1,32H8.8l1,0.7l-0.4,1.2l1-0.7l1,0.7l-0.4-1.2l1-0.7h-1.2L10.4,30.8z"/>
		<path class="st1" d="M10.4,36.6l-0.4,1.2H8.8l1,0.7l-0.4,1.2l1-0.7l1,0.7l-0.4-1.2l1-0.7h-1.2L10.4,36.6z"/>
		<path class="st1" d="M10.8,43.6l-0.4-1.2l-0.4,1.2H8.8l1,0.7l-0.4,1.2l1-0.7l1,0.7l-0.4-1.2l1-0.7H10.8z"/>
		<path class="st1" d="M15.9,22.3l1-0.7l1,0.7l-0.4-1.2l1-0.7h-1.2l-0.4-1.2l-0.4,1.2h-1.2l1,0.7L15.9,22.3z"/>
		<path class="st1" d="M16.9,25l-0.4,1.2h-1.2l1,0.7l-0.4,1.2l1-0.7l1,0.7l-0.4-1.2l1-0.7h-1.2L16.9,25z"/>
		<path class="st1" d="M16.9,30.8L16.6,32h-1.2l1,0.7l-0.4,1.2l1-0.7l1,0.7l-0.4-1.2l1-0.7h-1.2L16.9,30.8z"/>
		<path class="st1" d="M16.9,36.6l-0.4,1.2h-1.2l1,0.7l-0.4,1.2l1-0.7l1,0.7l-0.4-1.2l1-0.7h-1.2L16.9,36.6z"/>
		<path class="st1" d="M17.3,43.6l-0.4-1.2l-0.4,1.2h-1.2l1,0.7l-0.4,1.2l1-0.7l1,0.7l-0.4-1.2l1-0.7H17.3z"/>
		<path class="st1" d="M22.4,22.3l1-0.7l1,0.7l-0.4-1.2l1-0.7h-1.2l-0.4-1.2l-0.4,1.2h-1.2l1,0.7L22.4,22.3z"/>
		<path class="st1" d="M23.4,25l-0.4,1.2h-1.2l1,0.7l-0.4,1.2l1-0.7l1,0.7l-0.4-1.2l1-0.7h-1.2L23.4,25z"/>
		<path class="st1" d="M23.4,30.8L23.1,32h-1.2l1,0.7l-0.4,1.2l1-0.7l1,0.7l-0.4-1.2l1-0.7h-1.2L23.4,30.8z"/>
		<path class="st1" d="M23.4,36.6l-0.4,1.2h-1.2l1,0.7l-0.4,1.2l1-0.7l1,0.7l-0.4-1.2l1-0.7h-1.2L23.4,36.6z"/>
		<path class="st1" d="M23.8,43.6l-0.4-1.2l-0.4,1.2h-1.2l1,0.7l-0.4,1.2l1-0.7l1,0.7l-0.4-1.2l1-0.7H23.8z"/>
		<path class="st1" d="M28.9,22.3l1-0.7l1,0.7l-0.4-1.2l1-0.7h-1.2l-0.4-1.2l-0.4,1.2h-1.2l1,0.7L28.9,22.3z"/>
		<path class="st1" d="M29.9,25l-0.4,1.2h-1.2l1,0.7l-0.4,1.2l1-0.7l1,0.7l-0.4-1.2l1-0.7h-1.2L29.9,25z"/>
		<path class="st1" d="M29.9,30.8L29.6,32h-1.2l1,0.7l-0.4,1.2l1-0.7l1,0.7l-0.4-1.2l1-0.7h-1.2L29.9,30.8z"/>
		<path class="st1" d="M29.9,36.6l-0.4,1.2h-1.2l1,0.7l-0.4,1.2l1-0.7l1,0.7l-0.4-1.2l1-0.7h-1.2L29.9,36.6z"/>
		<path class="st1" d="M30.3,43.6l-0.4-1.2l-0.4,1.2h-1.2l1,0.7l-0.4,1.2l1-0.7l1,0.7l-0.4-1.2l1-0.7H30.3z"/>
		<path class="st1" d="M35.5,22.3l1-0.7l1,0.7l-0.4-1.2l1-0.7h-1.2l-0.4-1.2l-0.4,1.2h-1.2l1,0.7L35.5,22.3z"/>
		<path class="st1" d="M36.4,25l-0.4,1.2h-1.2l1,0.7l-0.4,1.2l1-0.7l1,0.7l-0.4-1.2l1-0.7h-1.2L36.4,25z"/>
		<path class="st1" d="M36.4,30.8L36.1,32h-1.2l1,0.7l-0.4,1.2l1-0.7l1,0.7l-0.4-1.2l1-0.7h-1.2L36.4,30.8z"/>
		<path class="st1" d="M36.4,36.6l-0.4,1.2h-1.2l1,0.7l-0.4,1.2l1-0.7l1,0.7l-0.4-1.2l1-0.7h-1.2L36.4,36.6z"/>
		<path class="st1" d="M36.8,43.6l-0.4-1.2l-0.4,1.2h-1.2l1,0.7l-0.4,1.2l1-0.7l1,0.7l-0.4-1.2l1-0.7H36.8z"/>
		<path class="st1" d="M6.2,25.5l1-0.7l1,0.7l-0.4-1.2l1-0.7H7.6l-0.4-1.2l-0.4,1.2H5.6l1,0.7L6.2,25.5z"/>
		<path class="st1" d="M7.2,28.2l-0.4,1.2H5.6l1,0.7l-0.4,1.2l1-0.7l1,0.7l-0.4-1.2l1-0.7H7.6L7.2,28.2z"/>
		<path class="st1" d="M7.2,34l-0.4,1.2H5.6l1,0.7l-0.4,1.2l1-0.7l1,0.7l-0.4-1.2l1-0.7H7.6L7.2,34z"/>
		<path class="st1" d="M7.2,39.8L6.8,41H5.6l1,0.7l-0.4,1.2l1-0.7l1,0.7l-0.4-1.2l1-0.7H7.6L7.2,39.8z"/>
		<path class="st1" d="M12.7,25.5l1-0.7l1,0.7l-0.4-1.2l1-0.7h-1.2l-0.4-1.2l-0.4,1.2h-1.2l1,0.7L12.7,25.5z"/>
		<path class="st1" d="M13.7,28.2l-0.4,1.2h-1.2l1,0.7l-0.4,1.2l1-0.7l1,0.7l-0.4-1.2l1-0.7h-1.2L13.7,28.2z"/>
		<path class="st1" d="M13.7,34l-0.4,1.2h-1.2l1,0.7l-0.4,1.2l1-0.7l1,0.7l-0.4-1.2l1-0.7h-1.2L13.7,34z"/>
		<path class="st1" d="M13.7,39.8L13.3,41h-1.2l1,0.7l-0.4,1.2l1-0.7l1,0.7l-0.4-1.2l1-0.7h-1.2L13.7,39.8z"/>
		<path class="st1" d="M19.2,25.5l1-0.7l1,0.7l-0.4-1.2l1-0.7h-1.2l-0.4-1.2l-0.4,1.2h-1.2l1,0.7L19.2,25.5z"/>
		<path class="st1" d="M20.2,28.2l-0.4,1.2h-1.2l1,0.7l-0.4,1.2l1-0.7l1,0.7l-0.4-1.2l1-0.7h-1.2L20.2,28.2z"/>
		<path class="st1" d="M20.2,34l-0.4,1.2h-1.2l1,0.7l-0.4,1.2l1-0.7l1,0.7l-0.4-1.2l1-0.7h-1.2L20.2,34z"/>
		<path class="st1" d="M20.2,39.8L19.8,41h-1.2l1,0.7l-0.4,1.2l1-0.7l1,0.7l-0.4-1.2l1-0.7h-1.2L20.2,39.8z"/>
		<path class="st1" d="M25.7,25.5l1-0.7l1,0.7l-0.4-1.2l1-0.7h-1.2l-0.4-1.2l-0.4,1.2h-1.2l1,0.7L25.7,25.5z"/>
		<path class="st1" d="M26.7,28.2l-0.4,1.2h-1.2l1,0.7l-0.4,1.2l1-0.7l1,0.7l-0.4-1.2l1-0.7h-1.2L26.7,28.2z"/>
		<path class="st1" d="M26.7,34l-0.4,1.2h-1.2l1,0.7l-0.4,1.2l1-0.7l1,0.7l-0.4-1.2l1-0.7h-1.2L26.7,34z"/>
		<path class="st1" d="M26.7,39.8L26.3,41h-1.2l1,0.7l-0.4,1.2l1-0.7l1,0.7l-0.4-1.2l1-0.7h-1.2L26.7,39.8z"/>
		<path class="st1" d="M32.2,25.5l1-0.7l1,0.7l-0.4-1.2l1-0.7h-1.2l-0.4-1.2l-0.4,1.2h-1.2l1,0.7L32.2,25.5z"/>
		<path class="st1" d="M33.2,28.2l-0.4,1.2h-1.2l1,0.7l-0.4,1.2l1-0.7l1,0.7l-0.4-1.2l1-0.7h-1.2L33.2,28.2z"/>
		<path class="st1" d="M33.2,34l-0.4,1.2h-1.2l1,0.7l-0.4,1.2l1-0.7l1,0.7l-0.4-1.2l1-0.7h-1.2L33.2,34z"/>
		<path class="st1" d="M33.2,39.8L32.8,41h-1.2l1,0.7l-0.4,1.2l1-0.7l1,0.7l-0.4-1.2l1-0.7h-1.2L33.2,39.8z"/>
	</g>
</g>
</svg>
